<svg t="1712388358473" class="icon" viewBox="0 0 1024 1024" version="1.1" xmlns="http://www.w3.org/2000/svg" p-id="24814" width="16" height="16"><path d="M832 42.666667A64 64 0 0 1 896 106.666667v677.504a64 64 0 0 1-18.773333 45.226666l-133.12 133.205334a64 64 0 0 1-45.269334 18.730666H192A64 64 0 0 1 128 917.333333v-810.666666A64 64 0 0 1 192 42.666667h640zM554.666667 597.333333H298.666667a42.666667 42.666667 0 0 0 0 85.333334h256a42.666667 42.666667 0 0 0 0-85.333334z m170.666666-170.666666H298.666667a42.666667 42.666667 0 0 0 0 85.333333h426.666666a42.666667 42.666667 0 0 0 0-85.333333z m0-170.666667H298.666667a42.666667 42.666667 0 1 0 0 85.333333h426.666666a42.666667 42.666667 0 0 0 0-85.333333z" fill="currentColor" p-id="24815"></path></svg>