<svg t="1708349718948" class="icon" viewBox="0 0 1024 1024" version="1.1" xmlns="http://www.w3.org/2000/svg" p-id="7609" width="16" height="16"><path d="M1024 554.666667c0 23.466667-19.2 42.666667-42.666667 42.666667-10.666667 0-21.333333-4.266667-29.866667-12.8l0 0L896 529.066667 896 938.666667c0 23.466667-19.2 42.666667-42.666667 42.666667L640 981.333333c-23.466667 0-42.666667-19.2-42.666667-42.666667L597.333333 640l-170.666667 0 0 298.666667c0 23.466667-19.2 42.666667-42.666667 42.666667L170.666667 981.333333c-23.466667 0-42.666667-19.2-42.666667-42.666667L128 529.066667l-55.466667 55.466667 0 0c-17.066667 17.066667-42.666667 17.066667-59.733333 0-17.066667-17.066667-17.066667-42.666667 0-59.733333 0 0 0 0 0 0l0 0 469.333333-469.333333 0 0c17.066667-17.066667 42.666667-17.066667 59.733333 0l0 0 469.333333 469.333333 0 0C1019.733333 533.333333 1024 544 1024 554.666667zM512 145.066667l-298.666667 298.666667L213.333333 896l128 0L341.333333 597.333333c0-23.466667 19.2-42.666667 42.666667-42.666667l256 0c23.466667 0 42.666667 19.2 42.666667 42.666667l0 298.666667 128 0L810.666667 443.733333 512 145.066667z" p-id="7610" fill="currentColor"></path></svg>