<svg t="1712766181795" class="icon" viewBox="0 0 1024 1024" version="1.1" xmlns="http://www.w3.org/2000/svg" p-id="11088" width="16" height="16"><path d="M579.956243 359.313065c13.24627 0 25.276698 5.247315 34.171537 13.758203 8.638872 6.527147 16.957785 13.63022 24.828756 21.437199l4.031474 4.031474c94.003721 94.067712 86.004766 242.52832-7.998955 336.660024l-218.083513 218.147504a242.848278 242.848278 0 0 1-342.227297 0l-4.095465-4.095465a242.784286 242.784286 0 0 1 0-342.35528L170.729698 513.212962a53.880962 53.880962 0 0 1 10.238663-9.534755l0.959875-0.959875 0.127983 0.191975a53.561004 53.561004 0 0 1 63.351725 86.260733L149.100524 685.478459a131.054881 131.054881 0 0 0 0 185.319793l4.095465 4.095465a131.310848 131.310848 0 0 0 185.319792 0l218.147505-218.083513c51.129321-51.129321 66.359332-139.053836 15.23001-190.055174l-4.031473-4.095465a186.407651 186.407651 0 0 0-13.438245-11.902445 49.52953 49.52953 0 0 1-12.158411-10.494629l-4.031474-5.43929a49.273564 49.273564 0 0 1 41.786542-75.510136z m27.004473-288.730285a242.720295 242.720295 0 0 1 342.227296 0l4.095465 4.095465a242.656303 242.656303 0 0 1-0.063991 342.227297l-101.234777 93.427796a53.43302 53.43302 0 0 1-12.158411 11.134545l-1.407816 1.407816-0.191975-0.319958a53.113062 53.113062 0 0 1-59.448235-87.988506l95.987462-96.115445a131.182864 131.182864 0 0 0 0-185.319793l-4.031474-4.031473a131.054881 131.054881 0 0 0-185.191809 0l-218.211496 218.083513C416.201634 418.249366 396.812166 492.543661 447.941488 543.672983l3.967481 3.90349c7.998955 7.998955 19.517451 16.38186 25.660648 30.204054l2.559666 6.399165a46.521923 46.521923 0 0 1-67.639165 54.264911h-0.063991a47.161839 47.161839 0 0 1-11.518496-9.342779 227.810242 227.810242 0 0 1-13.182278-12.158412l-4.031473-3.967482c-94.067712-94.195696-88.948381-230.113941 5.183323-324.245645z" fill="currentColor" p-id="11089"></path></svg>